<?xml version="1.0" encoding="UTF-8" standalone="no"?>
<!-- Created with Inkscape (http://www.inkscape.org/) -->

<svg
   xmlns:dc="http://purl.org/dc/elements/1.1/"
   xmlns:cc="http://creativecommons.org/ns#"
   xmlns:rdf="http://www.w3.org/1999/02/22-rdf-syntax-ns#"
   xmlns:svg="http://www.w3.org/2000/svg"
   xmlns="http://www.w3.org/2000/svg"
   xmlns:sodipodi="http://sodipodi.sourceforge.net/DTD/sodipodi-0.dtd"
   xmlns:inkscape="http://www.inkscape.org/namespaces/inkscape"
   width="2048"
   height="2048"
   viewBox="0 0 541.86665 541.86668"
   version="1.1"
   id="svg8"
   inkscape:version="0.92.1 r"
   sodipodi:docname="icon.svg"
   inkscape:export-filename="/home/zigapk/Desktop/icon_256.png"
   inkscape:export-xdpi="12.000001"
   inkscape:export-ydpi="12.000001">
  <defs
     id="defs2" />
  <sodipodi:namedview
     id="base"
     pagecolor="#ffffff"
     bordercolor="#666666"
     borderopacity="1.0"
     inkscape:pageopacity="0.0"
     inkscape:pageshadow="2"
     inkscape:zoom="0.24748737"
     inkscape:cx="145.49695"
     inkscape:cy="1139.3036"
     inkscape:document-units="mm"
     inkscape:current-layer="layer1"
     showgrid="false"
     units="px"
     inkscape:window-width="1680"
     inkscape:window-height="991"
     inkscape:window-x="0"
     inkscape:window-y="0"
     inkscape:window-maximized="1" />
  <metadata
     id="metadata5">
    <rdf:RDF>
      <cc:Work
         rdf:about="">
        <dc:format>image/svg+xml</dc:format>
        <dc:type
           rdf:resource="http://purl.org/dc/dcmitype/StillImage" />
        <dc:title />
      </cc:Work>
    </rdf:RDF>
  </metadata>
  <g
     inkscape:groupmode="layer"
     id="layer2"
     inkscape:label="background"
     style="display:inline">
    <circle
       style="opacity:1;fill:#424242;fill-opacity:1;stroke:none;stroke-width:6.8127923;stroke-linecap:round;stroke-miterlimit:4;stroke-dasharray:none;stroke-opacity:1"
       id="path4823"
       cx="270.93332"
       cy="270.93335"
       r="270.93332" />
  </g>
  <g
     inkscape:label="Layer 1"
     inkscape:groupmode="layer"
     id="layer1"
     transform="translate(0,244.86668)"
     style="display:inline">
    <path
       inkscape:connector-curvature="0"
       style="display:inline;fill:#00bcd4;fill-opacity:1;stroke-width:0.34825397"
       d="M 478.85707,0.92089895 A 25.536049,25.123333 0 0 0 453.32065,26.043922 25.536049,25.123333 0 0 0 478.85707,51.167432 25.536049,25.123333 0 0 0 504.39298,26.043922 25.536049,25.123333 0 0 0 478.85707,0.92089895 Z m 0,11.89849805 a 13.442103,13.22485 0 0 1 13.44207,13.224525 13.442103,13.22485 0 0 1 -13.44207,13.225013 13.442103,13.22485 0 0 1 -13.44208,-13.225013 13.442103,13.22485 0 0 1 13.44208,-13.224525 z"
       id="path4544" />
    <path
       inkscape:connector-curvature="0"
       style="fill:none;fill-opacity:1;stroke:#00bcd4;stroke-width:5.60996151;stroke-linecap:round;stroke-linejoin:miter;stroke-miterlimit:4;stroke-dasharray:none;stroke-opacity:1"
       d="M 176.38749,-83.959714 C 111.69833,-66.931319 62.371943,-29.379496 62.006529,29.978964 v 0 c -0.441716,36.158911 19.194709,64.74579 50.201921,85.884676"
       id="path4774" />
    <path
       inkscape:connector-curvature="0"
       style="fill:none;fill-opacity:1;stroke:#00bcd4;stroke-width:5.60996151;stroke-linecap:round;stroke-linejoin:miter;stroke-miterlimit:4;stroke-dasharray:none;stroke-opacity:1"
       d="M 138.96685,131.04278 C 267.13479,191.66417 507.78706,160.35735 480.8466,42.537888"
       id="path4800" />
    <g
       id="g4813"
       transform="rotate(-120,281.79364,38.639905)">
      <path
         inkscape:connector-curvature="0"
         style="display:inline;fill:#00bcd4;fill-opacity:1;stroke-width:0.34825397"
         d="M 478.85707,0.92089895 A 25.536049,25.123333 0 0 0 453.32065,26.043922 25.536049,25.123333 0 0 0 478.85707,51.167432 25.536049,25.123333 0 0 0 504.39298,26.043922 25.536049,25.123333 0 0 0 478.85707,0.92089895 Z m 0,11.89849805 a 13.442103,13.22485 0 0 1 13.44207,13.224525 13.442103,13.22485 0 0 1 -13.44207,13.225013 13.442103,13.22485 0 0 1 -13.44208,-13.225013 13.442103,13.22485 0 0 1 13.44208,-13.224525 z"
         id="path4807" />
      <path
         style="fill:none;fill-opacity:1;stroke:#00bcd4;stroke-width:21.20300484;stroke-linecap:round;stroke-linejoin:miter;stroke-miterlimit:4;stroke-dasharray:none;stroke-opacity:1"
         d="M 525.22903,1420.7602 C 1009.6433,1649.8804 1919.1952,1531.5554 1817.373,1086.2535"
         id="path4809"
         transform="matrix(0.26458333,0,0,0.26458333,0,-244.86668)"
         inkscape:connector-curvature="0" />
      <path
         style="fill:none;fill-opacity:1;stroke:#00bcd4;stroke-width:21.20300484;stroke-linecap:round;stroke-linejoin:miter;stroke-miterlimit:4;stroke-dasharray:none;stroke-opacity:1"
         d="M 666.66138,608.15232 C 422.16692,672.51161 235.73648,814.43976 234.35539,1038.7867 v 0 c -1.66948,136.6636 72.54693,244.7085 189.73953,324.6035"
         id="path4811"
         transform="matrix(0.26458333,0,0,0.26458333,0,-244.86668)"
         inkscape:connector-curvature="0" />
    </g>
    <text
       xml:space="preserve"
       style="display:inline;font-style:normal;font-weight:normal;font-size:10.50490379px;line-height:1.25;font-family:sans-serif;letter-spacing:0px;word-spacing:0px;fill:#000000;fill-opacity:1;stroke:none;stroke-width:0.26262259"
       x="10.942802"
       y="91.299522"
       id="text4490"
       transform="matrix(1.0067381,0,0,0.99330698,0,1.2291666e-6)"><tspan
         sodipodi:role="line"
         id="tspan4488"
         x="10.942802"
         y="91.299522"
         style="font-style:normal;font-variant:normal;font-weight:normal;font-stretch:normal;font-size:175.08172607px;font-family:sans-serif;-inkscape-font-specification:'sans-serif, Normal';font-variant-ligatures:normal;font-variant-caps:normal;font-variant-numeric:normal;font-feature-settings:normal;text-align:start;writing-mode:lr-tb;text-anchor:start;stroke-width:0.26262259"><tspan
           id="tspan4868"
           style="opacity:0.33653846;fill:#f0fbfd;fill-opacity:1">•</tspan><tspan
           style="fill:#f0fbfd;fill-opacity:1"
           id="tspan4542">•</tspan><tspan
           style="fill:#00bcd4;fill-opacity:1"
           id="tspan4540">•</tspan><tspan
           style="fill:#f0fbfd;fill-opacity:1"
           id="tspan4492">•</tspan><tspan
           style="opacity:0.01000001;fill:#000000;fill-opacity:0"
           id="tspan4546">•</tspan></tspan></text>
    <g
       id="g4821"
       transform="rotate(120,281.79364,38.639905)">
      <path
         inkscape:connector-curvature="0"
         style="display:inline;fill:#00bcd4;fill-opacity:1;stroke-width:0.34825397"
         d="M 478.85707,0.92089895 A 25.536049,25.123333 0 0 0 453.32065,26.043922 25.536049,25.123333 0 0 0 478.85707,51.167432 25.536049,25.123333 0 0 0 504.39298,26.043922 25.536049,25.123333 0 0 0 478.85707,0.92089895 Z m 0,11.89849805 a 13.442103,13.22485 0 0 1 13.44207,13.224525 13.442103,13.22485 0 0 1 -13.44207,13.225013 13.442103,13.22485 0 0 1 -13.44208,-13.225013 13.442103,13.22485 0 0 1 13.44208,-13.224525 z"
         id="path4815" />
      <path
         style="fill:none;fill-opacity:1;stroke:#00bcd4;stroke-width:21.20300484;stroke-linecap:round;stroke-linejoin:miter;stroke-miterlimit:4;stroke-dasharray:none;stroke-opacity:1"
         d="M 525.22903,1420.7602 C 1009.6433,1649.8804 1919.1952,1531.5554 1817.373,1086.2535"
         id="path4817"
         transform="matrix(0.26458333,0,0,0.26458333,0,-244.86668)"
         inkscape:connector-curvature="0" />
      <path
         style="fill:none;fill-opacity:1;stroke:#00bcd4;stroke-width:21.20300484;stroke-linecap:round;stroke-linejoin:miter;stroke-miterlimit:4;stroke-dasharray:none;stroke-opacity:1"
         d="M 666.66138,608.15232 C 422.16692,672.51161 235.73648,814.43976 234.35539,1038.7867 v 0 c -1.66948,136.6636 72.54693,244.7085 189.73953,324.6035"
         id="path4819"
         transform="matrix(0.26458333,0,0,0.26458333,0,-244.86668)"
         inkscape:connector-curvature="0" />
    </g>
    <circle
       style="opacity:1;fill:#00bcd4;fill-opacity:1;stroke:none;stroke-width:3.00789452;stroke-linecap:round;stroke-miterlimit:4;stroke-dasharray:none;stroke-opacity:1"
       id="path4866"
       cx="478.94702"
       cy="26.523216"
       r="19.243404" />
  </g>
</svg>
